<svg width="51" height="51" viewBox="0 0 51 51" fill="none" xmlns="http://www.w3.org/2000/svg">
<circle cx="25.5" cy="25.5" r="25.5" fill="white"/>
<path fill-rule="evenodd" clip-rule="evenodd" d="M35.7002 25.5C35.7002 25.822 35.5771 26.1308 35.3579 26.3585C35.1388 26.5862 34.8415 26.7141 34.5316 26.7141L20.9919 26.7141L26.01 31.9248C26.1187 32.0377 26.2048 32.1717 26.2636 32.3192C26.3224 32.4667 26.3527 32.6248 26.3527 32.7844C26.3527 32.944 26.3224 33.1021 26.2636 33.2496C26.2048 33.3971 26.1187 33.5311 26.01 33.644C25.9013 33.7568 25.7724 33.8464 25.6304 33.9075C25.4884 33.9686 25.3363 34 25.1826 34C25.029 34 24.8768 33.9686 24.7348 33.9075C24.5929 33.8464 24.4639 33.7568 24.3552 33.644L17.3435 26.3596C17.2347 26.2468 17.1483 26.1128 17.0894 25.9653C17.0305 25.8178 17.0002 25.6597 17.0002 25.5C17.0002 25.3403 17.0305 25.1822 17.0894 25.0347C17.1483 24.8872 17.2347 24.7532 17.3435 24.6404L24.3552 17.356C24.4639 17.2432 24.5929 17.1536 24.7348 17.0925C24.8768 17.0314 25.029 17 25.1826 17C25.3363 17 25.4884 17.0314 25.6304 17.0925C25.7724 17.1536 25.9013 17.2432 26.01 17.356C26.2294 17.584 26.3527 17.8932 26.3527 18.2156C26.3527 18.3752 26.3225 18.5333 26.2636 18.6808C26.2048 18.8283 26.1187 18.9623 26.01 19.0752L20.9919 24.2859L34.5316 24.2859C34.8415 24.2859 35.1388 24.4138 35.3579 24.6415C35.5771 24.8692 35.7002 25.178 35.7002 25.5Z" fill="black"/>
</svg>
