<svg width="38" height="58" viewBox="0 0 38 58" fill="none" xmlns="http://www.w3.org/2000/svg">
<path d="M4.64307 2.40577C4.64307 1.86587 4.43235 1.34807 4.05728 0.966303C3.68221 0.584532 3.1735 0.370056 2.64307 0.370056C2.11263 0.370056 1.60393 0.584532 1.22885 0.966303C0.853781 1.34807 0.643067 1.86587 0.643067 2.40577V14.6201C0.642596 16.9665 1.43863 19.2411 2.89645 21.0588C4.35428 22.8765 6.38434 24.1258 8.64307 24.5951V55.3343C8.64307 55.8742 8.85378 56.392 9.22885 56.7738C9.60393 57.1556 10.1126 57.3701 10.6431 57.3701C11.1735 57.3701 11.6822 57.1556 12.0573 56.7738C12.4324 56.392 12.6431 55.8742 12.6431 55.3343V24.5951C14.9018 24.1258 16.9319 22.8765 18.3897 21.0588C19.8475 19.2411 20.6435 16.9665 20.6431 14.6201V2.40577C20.6431 1.86587 20.4324 1.34807 20.0573 0.966303C19.6822 0.584532 19.1735 0.370056 18.6431 0.370056C18.1126 0.370056 17.6039 0.584532 17.2289 0.966303C16.8538 1.34807 16.6431 1.86587 16.6431 2.40577V14.6201C16.6437 15.8835 16.2594 17.1161 15.543 18.1479C14.8266 19.1797 13.8134 19.96 12.6431 20.3811V2.40577C12.6431 1.86587 12.4324 1.34807 12.0573 0.966303C11.6822 0.584532 11.1735 0.370056 10.6431 0.370056C10.1126 0.370056 9.60393 0.584532 9.22885 0.966303C8.85378 1.34807 8.64307 1.86587 8.64307 2.40577V20.3811C7.47275 19.96 6.45958 19.1797 5.74318 18.1479C5.02678 17.1161 4.64242 15.8835 4.64307 14.6201V2.40577ZM32.6431 55.3343V28.8701H26.6431C26.1126 28.8701 25.6039 28.6556 25.2289 28.2738C24.8538 27.892 24.6431 27.3742 24.6431 26.8343V10.5486C24.6431 7.84927 25.9471 5.32499 27.7271 3.50913C29.5111 1.69734 31.9911 0.370056 34.6431 0.370056C35.1735 0.370056 35.6822 0.584532 36.0573 0.966303C36.4324 1.34807 36.6431 1.86587 36.6431 2.40577V55.3343C36.6431 55.8742 36.4324 56.392 36.0573 56.7738C35.6822 57.1556 35.1735 57.3701 34.6431 57.3701C34.1126 57.3701 33.6039 57.1556 33.2289 56.7738C32.8538 56.392 32.6431 55.8742 32.6431 55.3343Z" fill="black"/>
</svg>
